<?xml version="1.0" encoding="UTF-8" standalone="no"?> <!-- Created with Vectornator for iOS (http://vectornator.io/) --><!DOCTYPE svg PUBLIC "-//W3C//DTD SVG 1.1//EN" "http://www.w3.org/Graphics/SVG/1.1/DTD/svg11.dtd">
<svg height="100%" style="fill-rule:evenodd;clip-rule:evenodd;stroke-linecap:round;stroke-linejoin:round;" xmlns:xlink="http://www.w3.org/1999/xlink" xmlns="http://www.w3.org/2000/svg" xml:space="preserve" width="100%"  version="1.1" viewBox="0 0 512 640">
<metadata>
<setting key="DynamicGuides" value="1"/>
<setting key="Units" value="Points"/>
<setting key="GuidesVisible" value="1"/>
<setting key="RulersVisible" value="1"/>
<setting key="SnapToGuides" value="1"/>
<setting key="GridSpacing" value="36"/>
</metadata>
<defs/>
<g id="Untitled" layerName="Untitled">
<g opacity="1">
<path d="M330.653+332.837C330.653+338.728+335.434+343.493+341.341+343.493L383.997+343.493C389.888+343.493+394.653+338.727+394.653+332.837C394.653+326.947+389.887+322.181+383.997+322.181L341.34+322.181C335.434+322.181+330.653+326.946+330.653+332.837Z" opacity="1" fill="currentColor"/>
<path d="M383.996+364.837L341.34+364.837C335.434+364.837+330.652+369.618+330.652+375.493C330.652+381.399+335.433+386.181+341.34+386.181L383.996+386.181C389.887+386.181+394.652+381.4+394.652+375.493C394.653+369.618+389.887+364.837+383.996+364.837Z" opacity="1" fill="currentColor"/>
<path d="M127.996+343.493L255.996+343.493C261.887+343.493+266.66+338.727+266.66+332.837C266.66+326.947+261.887+322.181+255.996+322.181L127.996+322.181C122.105+322.181+117.333+326.947+117.333+332.837C117.333+338.727+122.106+343.493+127.996+343.493Z" opacity="1" fill="currentColor"/>
<path d="M383.996+450.181L341.34+450.181C335.434+450.181+330.652+454.947+330.652+460.837C330.652+466.727+335.433+471.493+341.34+471.493L383.996+471.493C389.887+471.493+394.652+466.727+394.652+460.837C394.652+454.947+389.887+450.181+383.996+450.181Z" opacity="1" fill="currentColor"/>
<path d="M127.996+471.493L170.661+471.493C176.552+471.493+181.333+466.727+181.333+460.837C181.333+454.947+176.552+450.181+170.661+450.181L127.996+450.181C122.105+450.181+117.333+454.947+117.333+460.837C117.333+466.727+122.106+471.493+127.996+471.493Z" opacity="1" fill="currentColor"/>
<path d="M127.996+386.181L192.536+386.181L192.536+386.15C198.177+385.869+202.661+381.212+202.661+375.494C202.661+369.806+198.177+365.15+192.536+364.869L192.536+364.837L127.996+364.837C122.105+364.837+117.333+369.618+117.333+375.493C117.332+381.399+122.106+386.181+127.996+386.181Z" opacity="1" fill="currentColor"/>
<path d="M127.996+428.837C133.887+428.837+138.66+424.056+138.66+418.181C138.66+412.275+133.887+407.493+127.996+407.493C122.105+407.493+117.333+412.274+117.333+418.181C117.332+424.056+122.106+428.837+127.996+428.837Z" opacity="1" fill="currentColor"/>
<path d="M159.996+418.181C159.996+424.056+164.769+428.837+170.66+428.837C176.551+428.837+181.332+424.056+181.332+418.181C181.332+412.275+176.551+407.493+170.66+407.493C164.769+407.493+159.996+412.275+159.996+418.181Z" opacity="1" fill="currentColor"/>
<path d="M213.332+407.493C207.441+407.493+202.66+412.274+202.66+418.181C202.66+424.056+207.441+428.837+213.332+428.837C219.223+428.837+223.996+424.056+223.996+418.181C223.996+412.275+219.224+407.493+213.332+407.493Z" opacity="1" fill="currentColor"/>
<path d="M255.996+407.493C250.105+407.493+245.333+412.274+245.333+418.181C245.333+424.056+250.105+428.837+255.996+428.837C261.887+428.837+266.66+424.056+266.66+418.181C266.661+412.275+261.887+407.493+255.996+407.493Z" opacity="1" fill="currentColor"/>
<path d="M298.653+407.493C292.778+407.493+287.997+412.274+287.997+418.181C287.997+424.056+292.778+428.837+298.653+428.837C304.559+428.837+309.341+424.056+309.341+418.181C309.34+412.275+304.559+407.493+298.653+407.493Z" opacity="1" fill="currentColor"/>
<path d="M341.34+428.837C347.215+428.837+351.996+424.056+351.996+418.181C351.996+412.275+347.215+407.493+341.34+407.493C335.434+407.493+330.652+412.274+330.652+418.181C330.653+424.056+335.434+428.837+341.34+428.837Z" opacity="1" fill="currentColor"/>
<path d="M383.996+407.493C378.105+407.493+373.34+412.274+373.34+418.181C373.34+424.056+378.106+428.837+383.996+428.837C389.887+428.837+394.652+424.056+394.652+418.181C394.653+412.275+389.887+407.493+383.996+407.493Z" opacity="1" fill="currentColor"/>
<path d="M170.661+183.501L174.927+183.501L191.996+268.837L319.996+268.837L337.059+183.501L341.34+183.501C347.215+183.501+351.996+178.728+351.996+172.837C351.996+166.946+347.215+162.173+341.34+162.173L316.198+162.173L280.621+113.235L280.621+113.235C278.683+110.571+275.543+108.837+271.996+108.837C266.105+108.837+261.332+113.61+261.332+119.501C261.332+121.845+262.098+124.009+263.379+125.767L263.371+125.775L289.823+162.173L222.168+162.173L248.621+125.775L248.613+125.767C249.894+124.009+250.66+121.845+250.66+119.501C250.66+113.61+245.887+108.837+239.996+108.837C236.449+108.837+233.316+110.571+231.379+113.235L231.371+113.235L195.793+162.173L170.661+162.173C164.77+162.173+159.997+166.946+159.997+172.837C159.997+178.728+164.771+183.501+170.661+183.501ZM302.496+247.501L209.488+247.501L196.683+183.501L315.308+183.501L302.496+247.501Z" opacity="1" fill="currentColor"/>
<path d="M239.996+236.837C245.887+236.837+250.66+232.064+250.66+226.173L250.66+204.837C250.66+198.946+245.887+194.173+239.996+194.173C234.105+194.173+229.333+198.946+229.333+204.837L229.333+226.173C229.332+232.064+234.105+236.837+239.996+236.837Z" opacity="1" fill="currentColor"/>
<path d="M271.996+236.837C277.887+236.837+282.652+232.064+282.652+226.173L282.652+204.837C282.652+198.946+277.887+194.173+271.996+194.173C266.106+194.173+261.333+198.946+261.333+204.837L261.333+226.173C261.332+232.064+266.106+236.837+271.996+236.837Z" opacity="1" fill="currentColor"/>
<path d="M426.653+44.8372L85.3325+44.8372L74.6605+44.8372L74.6605+55.5012L74.6605+66.1732L74.6605+546.181C74.6605+552.04+77.0665+556.837+79.9965+556.837C82.9265+556.837+89.6215+554.681+94.8715+552.056L118.458+540.275C121.083+538.963+124.536+538.306+127.997+538.306C131.458+538.306+134.911+538.962+137.536+540.275L161.122+552.056C163.747+553.368+167.208+554.025+170.661+554.025C174.122+554.025+177.583+553.369+180.208+552.056L203.785+540.275C206.41+538.963+209.871+538.306+213.332+538.306C216.785+538.306+220.246+538.962+222.871+540.275L246.457+552.056C249.082+553.368+252.535+554.025+255.996+554.025C259.457+554.025+262.91+553.369+265.535+552.056L289.121+540.275C291.746+538.963+295.215+538.306+298.652+538.306C302.121+538.306+305.59+538.962+308.199+540.275L331.777+552.056C334.402+553.368+337.871+554.025+341.339+554.025C344.777+554.025+348.245+553.369+350.87+552.056L374.464+540.275C377.089+538.963+380.526+538.306+383.995+538.306C387.464+538.306+390.901+538.962+393.526+540.275L417.12+552.056C422.37+554.681+429.058+556.837+431.995+556.837C434.932+556.837+437.339+552.04+437.339+546.181L437.339+66.1732L437.339+55.5012L437.339+44.8372L426.653+44.8372ZM415.996+527.649L403.074+521.196C396.09+517.712+388.84+516.962+383.997+516.962C379.153+516.962+371.903+517.712+364.919+521.196L341.966+532.665C341.81+532.681+341.591+532.712+341.341+532.712C341.06+532.712+340.841+532.681+340.685+532.665L317.747+521.196C310.778+517.712+303.528+516.962+298.653+516.962C293.809+516.962+286.559+517.712+279.591+521.196L256.638+532.665C256.482+532.681+256.263+532.712+255.997+532.712C255.731+532.712+255.513+532.681+255.356+532.665L232.411+521.196C225.434+517.712+218.184+516.962+213.333+516.962C208.474+516.962+201.224+517.712+194.247+521.196L171.302+532.665C171.146+532.681+170.927+532.712+170.661+532.712C170.403+532.712+170.177+532.681+170.02+532.665L147.082+521.196C140.098+517.712+132.848+516.962+127.996+516.962C123.144+516.962+115.894+517.712+108.91+521.196L95.9955+527.649L95.9955+66.1732L415.996+66.1732L415.996+527.649L415.996+527.649Z" opacity="1" fill="currentColor"/>
</g>
</g>
</svg>
