<svg xmlns="http://www.w3.org/2000/svg" xmlns:xlink="http://www.w3.org/1999/xlink" version="1.1" x="0px" y="0px" viewBox="0 0 512 640" enable-background="new 0 0 512 512" xml:space="preserve"><g><path d="M330.652,288c0,5.891,4.781,10.656,10.688,10.656h42.656c5.891,0,10.656-4.766,10.656-10.656s-4.766-10.656-10.656-10.656   H341.34C335.434,277.344,330.652,282.109,330.652,288z"/><path d="M383.996,320H341.34c-5.906,0-10.688,4.781-10.688,10.656c0,5.906,4.781,10.688,10.688,10.688h42.656   c5.891,0,10.656-4.781,10.656-10.688C394.652,324.781,389.887,320,383.996,320z"/><path d="M127.996,298.656h128c5.891,0,10.664-4.766,10.664-10.656s-4.773-10.656-10.664-10.656h-128   c-5.891,0-10.664,4.766-10.664,10.656S122.105,298.656,127.996,298.656z"/><path d="M383.996,405.344H341.34c-5.906,0-10.688,4.766-10.688,10.656s4.781,10.656,10.688,10.656h42.656   c5.891,0,10.656-4.766,10.656-10.656S389.887,405.344,383.996,405.344z"/><path d="M127.996,426.656h42.664c5.891,0,10.672-4.766,10.672-10.656s-4.781-10.656-10.672-10.656h-42.664   c-5.891,0-10.664,4.766-10.664,10.656S122.105,426.656,127.996,426.656z"/><path d="M127.996,341.344h64.539v-0.031c5.641-0.281,10.125-4.938,10.125-10.656c0-5.688-4.484-10.344-10.125-10.625V320h-64.539   c-5.891,0-10.664,4.781-10.664,10.656C117.332,336.562,122.105,341.344,127.996,341.344z"/><path d="M127.996,384c5.891,0,10.664-4.781,10.664-10.656c0-5.906-4.773-10.688-10.664-10.688s-10.664,4.781-10.664,10.688   C117.332,379.219,122.105,384,127.996,384z"/><path d="M159.996,373.344c0,5.875,4.773,10.656,10.664,10.656s10.672-4.781,10.672-10.656c0-5.906-4.781-10.688-10.672-10.688   S159.996,367.438,159.996,373.344z"/><path d="M213.332,362.656c-5.891,0-10.672,4.781-10.672,10.688c0,5.875,4.781,10.656,10.672,10.656s10.664-4.781,10.664-10.656   C223.996,367.438,219.223,362.656,213.332,362.656z"/><path d="M255.996,362.656c-5.891,0-10.664,4.781-10.664,10.688c0,5.875,4.773,10.656,10.664,10.656s10.664-4.781,10.664-10.656   C266.66,367.438,261.887,362.656,255.996,362.656z"/><path d="M298.652,362.656c-5.875,0-10.656,4.781-10.656,10.688c0,5.875,4.781,10.656,10.656,10.656   c5.906,0,10.688-4.781,10.688-10.656C309.34,367.438,304.559,362.656,298.652,362.656z"/><path d="M341.34,384c5.875,0,10.656-4.781,10.656-10.656c0-5.906-4.781-10.688-10.656-10.688c-5.906,0-10.688,4.781-10.688,10.688   C330.652,379.219,335.434,384,341.34,384z"/><path d="M383.996,362.656c-5.891,0-10.656,4.781-10.656,10.688c0,5.875,4.766,10.656,10.656,10.656s10.656-4.781,10.656-10.656   C394.652,367.438,389.887,362.656,383.996,362.656z"/><path d="M170.66,138.664h4.266L191.996,224h128l17.062-85.336h4.281c5.875,0,10.656-4.773,10.656-10.664   s-4.781-10.664-10.656-10.664h-25.141l-35.578-48.938l0,0c-1.938-2.664-5.078-4.398-8.625-4.398   c-5.891,0-10.664,4.773-10.664,10.664c0,2.344,0.766,4.508,2.047,6.266l-0.008,0.008l26.453,36.398h-67.656l26.453-36.398   l-0.008-0.008c1.281-1.758,2.047-3.922,2.047-6.266c0-5.891-4.773-10.664-10.664-10.664c-3.547,0-6.68,1.734-8.617,4.398h-0.008   l-35.578,48.938H170.66c-5.891,0-10.664,4.773-10.664,10.664S164.77,138.664,170.66,138.664z M302.496,202.664h-93.008l-12.805-64   h118.625L302.496,202.664z"/><path d="M239.996,192c5.891,0,10.664-4.773,10.664-10.664V160c0-5.891-4.773-10.664-10.664-10.664s-10.664,4.773-10.664,10.664   v21.336C229.332,187.227,234.105,192,239.996,192z"/><path d="M271.996,192c5.891,0,10.656-4.773,10.656-10.664V160c0-5.891-4.766-10.664-10.656-10.664s-10.664,4.773-10.664,10.664   v21.336C261.332,187.227,266.105,192,271.996,192z"/><path d="M426.652,0H85.332H74.66v10.664v10.672v480.008c0,5.859,2.406,10.656,5.336,10.656s9.625-2.156,14.875-4.781l23.586-11.781   c2.625-1.312,6.078-1.969,9.539-1.969s6.914,0.656,9.539,1.969l23.586,11.781c2.625,1.312,6.086,1.969,9.539,1.969   c3.461,0,6.922-0.656,9.547-1.969l23.578-11.781c2.625-1.312,6.086-1.969,9.547-1.969c3.453,0,6.914,0.656,9.539,1.969   l23.586,11.781c2.625,1.312,6.078,1.969,9.539,1.969s6.914-0.656,9.539-1.969l23.586-11.781c2.625-1.312,6.094-1.969,9.531-1.969   c3.469,0,6.938,0.656,9.547,1.969l23.578,11.781c2.625,1.312,6.094,1.969,9.562,1.969c3.438,0,6.906-0.656,9.531-1.969   l23.594-11.781c2.625-1.312,6.062-1.969,9.531-1.969s6.906,0.656,9.531,1.969l23.594,11.781c5.25,2.625,11.938,4.781,14.875,4.781   s5.344-4.797,5.344-10.656V21.336V10.664V0H426.652z M415.996,482.812l-12.922-6.453c-6.984-3.484-14.234-4.234-19.078-4.234   s-12.094,0.75-19.078,4.234l-22.953,11.469c-0.156,0.016-0.375,0.047-0.625,0.047c-0.281,0-0.5-0.031-0.656-0.047l-22.938-11.469   c-6.969-3.484-14.219-4.234-19.094-4.234c-4.844,0-12.094,0.75-19.062,4.234l-22.953,11.469c-0.156,0.016-0.375,0.047-0.641,0.047   s-0.484-0.031-0.641-0.047l-22.945-11.469c-6.977-3.484-14.227-4.234-19.078-4.234c-4.859,0-12.109,0.75-19.086,4.234   l-22.945,11.469c-0.156,0.016-0.375,0.047-0.641,0.047c-0.258,0-0.484-0.031-0.641-0.047l-22.938-11.469   c-6.984-3.484-14.234-4.234-19.086-4.234s-12.102,0.75-19.086,4.234l-12.914,6.453V21.336h320V482.812z"/></g></svg>